<svg xmlns="http://www.w3.org/2000/svg" xmlns:xlink="http://www.w3.org/1999/xlink" version="1.1" width="150" height="150" viewBox="0 0 256 256" xml:space="preserve">

<defs>
</defs>
<g style="stroke: none; stroke-width: 0; stroke-dasharray: none; stroke-linecap: butt; stroke-linejoin: miter; stroke-miterlimit: 10; fill: none; fill-rule: nonzero; opacity: 1;" transform="translate(1.4065934065934016 1.4065934065934016) scale(2.81 2.81)" >
	<path d="M 45 90 C 20.187 90 0 69.813 0 45 C 0 20.187 20.187 0 45 0 c 24.813 0 45 20.187 45 45 C 90 69.813 69.813 90 45 90 z M 45 2 C 21.29 2 2 21.29 2 45 c 0 23.71 19.29 43 43 43 c 23.71 0 43 -19.29 43 -43 C 88 21.29 68.71 2 45 2 z" style="stroke: none; stroke-width: 1; stroke-dasharray: none; stroke-linecap: butt; stroke-linejoin: miter; stroke-miterlimit: 10; fill: rgb(0,0,0); fill-rule: nonzero; opacity: 1;" transform=" matrix(1 0 0 1 0 0) " stroke-linecap="round" />
	<path d="M 27.605 73.256 c 2.174 -2.423 4.757 -4.529 7.706 -6.081 c 2.935 -1.566 6.286 -2.493 9.69 -2.522 c 3.404 0.027 6.756 0.953 9.691 2.519 c 2.949 1.551 5.532 3.658 7.704 6.083 c -2.719 -1.798 -5.462 -3.464 -8.367 -4.67 c -2.9 -1.195 -5.951 -1.938 -9.028 -1.933 c -3.077 -0.007 -6.129 0.736 -9.029 1.931 C 33.064 69.79 30.322 71.457 27.605 73.256 z" style="stroke: none; stroke-width: 1; stroke-dasharray: none; stroke-linecap: butt; stroke-linejoin: miter; stroke-miterlimit: 10; fill: rgb(0,0,0); fill-rule: nonzero; opacity: 1;" transform=" matrix(1 0 0 1 0 0) " stroke-linecap="round" />
	<circle cx="29.791" cy="50.121" r="4.741" style="stroke: none; stroke-width: 1; stroke-dasharray: none; stroke-linecap: butt; stroke-linejoin: miter; stroke-miterlimit: 10; fill: rgb(0,0,0); fill-rule: nonzero; opacity: 1;" transform="  matrix(1 0 0 1 0 0) "/>
	<circle cx="60.211" cy="50.121" r="4.741" style="stroke: none; stroke-width: 1; stroke-dasharray: none; stroke-linecap: butt; stroke-linejoin: miter; stroke-miterlimit: 10; fill: rgb(0,0,0); fill-rule: nonzero; opacity: 1;" transform="  matrix(1 0 0 1 0 0) "/>
	<path d="M 45 90 C 20.187 90 0 69.813 0 45 C 0 20.187 20.187 0 45 0 c 24.813 0 45 20.187 45 45 C 90 69.813 69.813 90 45 90 z M 45 2 C 21.29 2 2 21.29 2 45 c 0 23.71 19.29 43 43 43 c 23.71 0 43 -19.29 43 -43 C 88 21.29 68.71 2 45 2 z" style="stroke: none; stroke-width: 1; stroke-dasharray: none; stroke-linecap: butt; stroke-linejoin: miter; stroke-miterlimit: 10; fill: rgb(0,0,0); fill-rule: nonzero; opacity: 1;" transform=" matrix(1 0 0 1 0 0) " stroke-linecap="round" />
	<path d="M 9.619 35.236 c 3.232 0.053 6.414 -0.022 9.491 -0.554 c 3.067 -0.54 6.025 -1.518 8.641 -3.105 c 2.623 -1.574 4.868 -3.733 6.777 -6.194 c 1.906 -2.473 3.458 -5.251 4.923 -8.133 c -0.679 3.158 -1.875 6.24 -3.644 9.028 c -1.751 2.795 -4.153 5.251 -7.023 7.011 c -2.897 1.715 -6.189 2.692 -9.478 2.936 C 16.013 36.487 12.729 36.107 9.619 35.236 z" style="stroke: none; stroke-width: 1; stroke-dasharray: none; stroke-linecap: butt; stroke-linejoin: miter; stroke-miterlimit: 10; fill: rgb(0,0,0); fill-rule: nonzero; opacity: 1;" transform=" matrix(1 0 0 1 0 0) " stroke-linecap="round" />
	<path d="M 26.246 56.677 c -0.974 0 -1.942 -0.153 -2.885 -0.476 c -2.954 -1.009 -5.192 -3.473 -6.303 -6.938 c -1.077 -3.359 -0.963 -7.281 0.322 -11.042 c 0.355 -1.041 0.795 -2.049 1.307 -3 l 1.761 0.949 c -0.46 0.853 -0.855 1.76 -1.175 2.697 c -1.146 3.357 -1.257 6.833 -0.31 9.785 c 0.913 2.848 2.705 4.856 5.045 5.655 c 4.945 1.688 10.861 -2.491 13.192 -9.316 c 2.303 -6.742 0.229 -13.651 -4.624 -15.401 l 0.679 -1.882 c 5.873 2.118 8.492 10.161 5.838 17.929 C 36.828 52.269 31.46 56.677 26.246 56.677 z" style="stroke: none; stroke-width: 1; stroke-dasharray: none; stroke-linecap: butt; stroke-linejoin: miter; stroke-miterlimit: 10; fill: rgb(0,0,0); fill-rule: nonzero; opacity: 1;" transform=" matrix(1 0 0 1 0 0) " stroke-linecap="round" />
	<path d="M 80.381 35.236 c -3.11 0.871 -6.393 1.251 -9.685 0.988 c -3.289 -0.243 -6.581 -1.221 -9.478 -2.936 c -2.87 -1.76 -5.271 -4.215 -7.023 -7.011 c -1.77 -2.789 -2.966 -5.871 -3.644 -9.028 c 1.464 2.883 3.016 5.66 4.923 8.133 c 1.908 2.461 4.153 4.62 6.777 6.194 c 2.615 1.587 5.573 2.565 8.641 3.105 C 73.967 35.214 77.148 35.289 80.381 35.236 z" style="stroke: none; stroke-width: 1; stroke-dasharray: none; stroke-linecap: butt; stroke-linejoin: miter; stroke-miterlimit: 10; fill: rgb(0,0,0); fill-rule: nonzero; opacity: 1;" transform=" matrix(1 0 0 1 0 0) " stroke-linecap="round" />
	<path d="M 63.754 56.677 c -5.215 0 -10.581 -4.407 -12.846 -11.038 c -2.654 -7.768 -0.036 -15.811 5.838 -17.929 l 0.678 1.882 c -4.853 1.75 -6.927 8.659 -4.623 15.401 c 2.331 6.825 8.245 10.999 13.191 9.316 c 2.34 -0.799 4.132 -2.808 5.045 -5.655 c 0.947 -2.953 0.837 -6.428 -0.31 -9.785 c -0.321 -0.938 -0.717 -1.845 -1.176 -2.697 l 1.76 -0.949 c 0.512 0.948 0.952 1.957 1.309 2.999 c 1.285 3.762 1.399 7.684 0.321 11.042 c -1.11 3.465 -3.35 5.929 -6.303 6.938 C 65.696 56.522 64.728 56.677 63.754 56.677 z" style="stroke: none; stroke-width: 1; stroke-dasharray: none; stroke-linecap: butt; stroke-linejoin: miter; stroke-miterlimit: 10; fill: rgb(0,0,0); fill-rule: nonzero; opacity: 1;" transform=" matrix(1 0 0 1 0 0) " stroke-linecap="round" />
</g>
</svg>